<?xml version="1.0" encoding="utf-8"?>
<!-- Generator: Adobe Illustrator 25.0.1, SVG Export Plug-In . SVG Version: 6.00 Build 0)  -->
<svg version="1.1" id="レイヤー_1" xmlns="http://www.w3.org/2000/svg" xmlns:xlink="http://www.w3.org/1999/xlink" x="0px"
	 y="0px" width="151.1px" height="34px" viewBox="0 0 151.1 34" style="enable-background:new 0 0 151.1 34;" xml:space="preserve">
<style type="text/css">
	.st0{fill:#000846;}
</style>
<g>
	<path class="st0" d="M29.7,0h0.1c0.7,0,1.4,0.8,1.9,2.4c4.2,9.8,6.7,15.7,7.5,17.6h0c2.6-9.5,4.1-15.1,4.5-16.7
		c0.3-1.1,0.5-1.8,0.8-2.1c0.4-0.5,1-0.8,1.9-0.8c0.1,0,0.6,0,1.5,0h0.2c2.5,0,4.8,0.1,6.8,0.2v0c-1.5,1.2-3.4,2.6-5.7,4.4
		c-0.9,0.8-1.5,1.6-1.8,2.2c-0.2,0.5-0.6,1.6-1.1,3.4l-6.9,22.4c-0.3,0.8-0.9,1.1-1.6,1.1c-0.9,0-1.6-0.6-2-1.9
		c-4.4-10.9-6.9-17.3-7.7-19c-0.3,0.6-1.1,2.4-2.3,5.4c-0.1,0.3-2.1,5.1-5.9,14.5c-0.4,0.7-0.9,1-1.7,1c-1,0-1.6-0.7-2-2.1
		C13.3,23,10.7,15.5,8.7,9.5c-0.5-1.6-1-2.7-1.5-3.4c-0.4-0.5-0.8-1-1.4-1.4C4.5,3.8,2.5,2.3,0,0.4c0.3,0,0.7-0.1,1.2-0.1h11.2
		c1.1,0,1.8,0.3,2.1,0.9c0.2,0.4,0.8,2,1.6,4.7c2.6,8.5,4,13.1,4.3,13.9h0c0.5-1,2-4.8,4.7-11.5L28,1.3C28.5,0.4,29.1,0,29.7,0z"/>
	<path class="st0" d="M61.4,10.1c2.5,0,4.8,0.7,7.1,2.2c0.9,0.7,1.7,1.5,2.4,2.4c1.4,2.2,2.1,4.6,2.1,7.3c0,5-2,8.6-6,10.8
		c-1.6,0.8-3.3,1.2-5.2,1.2c-4.4,0-7.6-1.8-9.8-5.3c-1.1-2-1.7-4.2-1.7-6.5c0-5.2,2.2-8.8,6.5-11C58.2,10.4,59.7,10.1,61.4,10.1z
		 M56.1,22.1L56.1,22.1c0,3.9,1,6.6,3.1,8.1c0.8,0.5,1.6,0.7,2.4,0.7c2.4,0,4.1-1.6,5.1-4.9c0.3-1.3,0.5-2.6,0.5-3.9
		c0-3.2-0.8-5.7-2.3-7.4c-0.9-0.9-1.9-1.3-3.1-1.3h-0.4c-2.2,0-3.9,1.5-4.9,4.6C56.2,19.1,56.1,20.5,56.1,22.1z"/>
	<path class="st0" d="M92.2,10.1c2.1,0,3.5,0.8,4.2,2.5c0.2,0.5,0.3,0.9,0.3,1.3v0.4c0,0.9-0.4,1.7-1.2,2.3
		c-0.5,0.4-1.1,0.5-1.6,0.5h-0.1c-1.2,0-2.1-0.6-2.7-1.9c-0.1-0.9-0.3-1.3-0.4-1.3c-0.1-0.1-0.2-0.1-0.3-0.1c-0.7,0-1.5,0.5-2.2,1.4
		c-0.9,1.3-1.4,3-1.4,5.2v9c0,2.2-1,3.8-3,4.5c0,0.1-1,0.1-2.9,0.1h-5v0c1.2-1,2.3-1.8,3.4-2.6c0.7-0.7,1.2-1.2,1.3-1.6
		c0.4-0.9,0.6-1.6,0.6-2.3c0-2.7,0-4.5,0-5.4c0-1,0-2.7,0-5.3c0-0.9-0.3-1.8-0.8-2.7c-0.4-0.6-0.9-1.1-1.6-1.6
		c-0.8-0.6-1.8-1.3-2.8-2.1v0l0.1-0.2c1.8,0,3.1,0,4.1,0h0.4c1,0,2.3,0,4.1,0c0.7,0,1.1,0.3,1.4,1c0.1,0.4,0.2,0.9,0.3,1.4
		C88.1,10.9,90.1,10.1,92.2,10.1z"/>
	<path class="st0" d="M101.1,0.5h4.7c1.5,0,2.3,0.2,2.4,0.5c0.3,0.2,0.4,0.8,0.4,1.5v17.2l7.8-7.5c0.9-0.6,1.8-0.9,2.6-0.9
		c0.5,0,0.9,0,1.2,0c1.7,0,3.2,0,4.7,0.1v0c-1.6,0.6-3.2,1.5-5,2.6c-1,0.7-3.3,2.6-6.8,5.7c3.7,4.7,6.2,8,7.6,9.8c1,1,1.8,1.7,2.3,2
		c1.3,0.9,2.2,1.7,2.9,2.3C126,33.9,126,34,126,34h-0.3c-4.6,0-6.9-0.1-6.9-0.2c-0.9-0.3-1.5-0.7-1.9-1.3c-0.3-0.2-0.8-0.9-1.5-2
		c0,0-1.8-2.7-5.5-7.9c-0.9,0.5-1.3,1.1-1.3,1.9c0,0.8,0,1.5,0,2.2c0,2.4-0.1,3.9-0.3,4.6c-0.4,1-1,1.8-1.8,2.2
		c-0.7,0.3-1.8,0.5-3.5,0.5h-0.2c-0.3,0-1.9,0-4.7,0l0-0.1c1.3-1,2.5-1.9,3.5-2.7c0.7-0.6,1.2-1.5,1.5-2.8l0.1-0.9
		c0-3.9,0-7.2,0-9.7v-1.4c0-2.4,0-5.6,0-9.5c0-1.3-0.5-2.5-1.5-3.6l-1.9-1.5c0,0-0.6-0.4-1.7-1.3v0C98.6,0.5,99.6,0.5,101.1,0.5z"/>
	<path class="st0" d="M137.4,10.1c2.1,0,4,0.5,5.9,1.5c1.2,0.8,1.8,1.9,1.8,3.3v0.9c0,0.7,0,1.5,0,2.3h0c-0.4-0.8-1-1.6-1.6-2.3
		c-1.7-1.7-3.5-2.5-5.4-2.5h-0.2c-1.4,0-2.5,0.4-3.4,1.3c-0.3,0.4-0.5,0.7-0.5,1.1v0.1c0,1,0.9,1.7,2.6,2.4c2.9,1.2,4.6,1.9,5.3,2.3
		c0.6,0.3,1.3,0.9,2.1,1.6c1.3,1.5,2,3.3,2,5.3c0,2.9-1.8,4.9-5.4,6c-1.4,0.4-2.7,0.6-3.9,0.6h-0.3c-2.1,0-4.1-0.5-6-1.6
		c-0.6-0.4-1.1-0.9-1.4-1.4c-0.2-0.2-0.3-0.8-0.3-1.8v-1.6c0-0.5,0-1.3,0-2.2h0c0,0.2,0.4,0.8,1.1,2c1.7,2.2,4,3.4,6.9,3.4
		c1.5,0,2.5-0.4,3.1-1.3c0.2-0.5,0.4-1,0.4-1.5c0-1.4-1-2.5-3-3.3l-5-2.1c-0.6-0.3-1.2-0.8-1.9-1.4c-1.2-1.3-1.8-2.7-1.8-4.4
		c0-2.1,0.9-3.9,2.8-5.2c0.5-0.3,1.1-0.6,1.8-0.9C134.7,10.3,136.1,10.1,137.4,10.1z"/>
</g>
</svg>
